<svg xmlns="http://www.w3.org/2000/svg" viewBox="0 0 640 160" role="img" aria-labelledby="title desc">
  <title>FreeAgilePoker — Poker Chip with Check</title>
  <desc>Modern poker chip icon merged with a checkmark, plus the FreeAgilePoker wordmark.</desc>
  <defs>
    <style><![CDATA[
      .blue { fill: #0B3C5D; }
      .green { fill: #22C55E; }
      .text { font-family: Inter, system-ui, -apple-system, "Segoe UI", Roboto, Helvetica, Arial, "Noto Sans", "Liberation Sans", sans-serif; font-weight: 800; letter-spacing: .2px; }
    ]]></style>
    <filter id="chipShadow" x="-20%" y="-20%" width="140%" height="140%">
      <feDropShadow dx="0" dy="2" stdDeviation="3" flood-color="#0B3C5D" flood-opacity="0.12"/>
    </filter>
  </defs>

  <g transform="translate(40,24)" filter="url(#chipShadow)">
    <circle cx="56" cy="56" r="52" fill="#fff" stroke="#0B3C5D" stroke-width="10"/>
    <g transform="translate(56,56)">
      <rect x="-4" y="-64" width="8" height="16" rx="2" class="green"/>
      <rect x="-4" y="48" width="8" height="16" rx="2" class="green"/>
      <rect x="48" y="-4" width="16" height="8" rx="2" class="green"/>
      <rect x="-64" y="-4" width="16" height="8" rx="2" class="green"/>
      <rect x="34" y="-45" width="8" height="16" rx="2" class="green" transform="rotate(45)"/>
      <rect x="-42" y="31" width="8" height="16" rx="2" class="green" transform="rotate(45)"/>
      <rect x="-45" y="-42" width="16" height="8" rx="2" class="green" transform="rotate(45)"/>
      <rect x="31" y="34" width="16" height="8" rx="2" class="green" transform="rotate(45)"/>
    </g>
    <path d="M32 58 l16 16 38 -38" stroke="#22C55E" stroke-width="10" fill="none" stroke-linecap="round" stroke-linejoin="round"/>
  </g>

  <text class="text blue" x="160" y="94" font-size="44">FreeAgile</text>
  <text class="text green" x="360" y="94" font-size="44">Poker</text>
</svg>
